#N canvas 749 434 767 588 12;
#X obj 99 186 dbtorms;
#X obj 103 100 hsl 64 19 0 100 0 0 empty empty empty -2 -10 0 12 #fcfcfc #000000 #000000 0 1;
#X floatatom 99 154 5 0 0 0 - - - 0;
#X floatatom 99 216 15 0 0 0 - - - 0;
#X obj 169 100 tgl 19 0 empty empty empty 0 -10 0 12 #fcfcfc #000000 #000000 0 1e-06;
#X obj 202 375 line~;
#X msg 170 59 nonzero \$1;
#X obj 383 204 inlet~;
#X obj 384 274 *~;
#X obj 99 268 spigot, f 11;
#X obj 449 205 inlet~;
#X obj 449 275 *~;
#X obj 384 332 dac~ 1 2;
#X floatatom 200 318 5 0 0 0 - - - 0;
#X msg 201 342 \$1 50;
#X obj 486 334 throw~ L;
#X obj 569 334 throw~ R;
#X obj 342 387 outlet~;
#X obj 453 391 outlet~;
#X obj 383 228 hip~ 1;
#X obj 449 229 hip~ 1;
#X obj 282 71 loadbang;
#X msg 282 95 1e-06;
#X connect 0 0 3 0;
#X connect 1 0 2 0;
#X connect 2 0 0 0;
#X connect 3 0 6 0;
#X connect 3 0 9 0;
#X connect 4 0 9 1;
#X connect 4 0 13 0;
#X connect 5 0 8 1;
#X connect 5 0 11 1;
#X connect 6 0 4 0;
#X connect 7 0 19 0;
#X connect 8 0 12 0;
#X connect 8 0 15 0;
#X connect 8 0 17 0;
#X connect 9 0 13 0;
#X connect 10 0 20 0;
#X connect 11 0 12 1;
#X connect 11 0 16 0;
#X connect 11 0 18 0;
#X connect 13 0 14 0;
#X connect 14 0 5 0;
#X connect 19 0 8 0;
#X connect 20 0 11 0;
#X connect 21 0 22 0;
#X connect 22 0 6 0;
#X coords 0 -1 1 1 88 19 2 100 100;
