#N canvas 339 299 924 686 12;
#X obj 3 0 hsl 32 15 0.5 20 1 0 empty empty empty -2 -8 0 10 #fcfcfc #000000 #000000 0 1;
#X obj 7 117 outlet;
#X msg 52 36 set \$1;
#X obj 36 0 nbx 5 15 0.5 20 0 0 empty empty empty 0 -15 0 8 #fcfcfc #000000 #000000 0 256;
#X floatatom -59 40 5 0 0 0 - - - 0;
#X floatatom -61 -137 4 -100 0 0 - - - 0;
#X floatatom 65 -136 5 0 100 0 - - - 0;
#X msg -28 -81 range \$1 \$2;
#X obj -28 -103 pack 0 127, f 11;
#X text -28 -138 minimum;
#X text 109 -138 maximum;
#X msg -54 67 set \$1;
#X floatatom 9 79 5 0 0 0 - - - 0;
#X obj -63 -162 \$1;
#X obj 68 -164 \$2;
#X obj -66 -221 loadbang;
#X obj -147 -157 \$3;
#X obj -66 -197 t b b b;
#X floatatom -147 -92 5 0 0 0 - - - 0;
#X text -110 -90 init;
#X obj 158 -99 inlet ext_ctl;
#X connect 0 0 4 0;
#X connect 0 0 12 0;
#X connect 2 0 0 0;
#X connect 3 0 2 0;
#X connect 3 0 12 0;
#X connect 4 0 11 0;
#X connect 5 0 8 0;
#X connect 6 0 8 1;
#X connect 7 0 0 0;
#X connect 7 0 3 0;
#X connect 8 0 7 0;
#X connect 11 0 3 0;
#X connect 12 0 1 0;
#X connect 13 0 5 0;
#X connect 14 0 6 0;
#X connect 15 0 17 0;
#X connect 16 0 18 0;
#X connect 17 0 16 0;
#X connect 17 1 13 0;
#X connect 17 2 14 0;
#X connect 18 0 0 0;
#X connect 20 0 3 0;
#X connect 20 0 0 0;
#X coords 0 -1 1 1 81 15 2 0 0;
