#N canvas 565 486 1078 877 12;
#X obj 103 100 hsl 32 15 20 15000 1 0 empty empty empty -2 -8 0 10 #fcfcfc #000000 #000000 0 1;
#X msg 107 162 set \$1;
#X obj 136 100 nbx 5 15 20 15000 0 0 empty empty empty 0 -15 0 8 #fcfcfc #000000 #000000 0 256;
#X floatatom 41 140 5 0 0 0 - - - 0;
#X floatatom 39 -37 4 -100 0 0 - - - 0;
#X floatatom 117 -29 5 0 100 0 - - - 0;
#X msg 39 41 range \$1 \$2;
#X obj 39 19 pack 0 127, f 11;
#X text -20 -38 minimum;
#X text 161 -31 maximum;
#X msg 46 167 set \$1;
#X obj 37 -62 \$1;
#X obj 120 -57 \$2;
#X obj 34 -121 loadbang;
#X obj 34 -97 t b b;
#X obj 246 5 inlet~;
#X obj 310 182 snapshot~;
#X obj 214 217 outlet~;
#X floatatom 305 229 5 0 0 0 - - - 0;
#X obj 261 139 +~;
#X obj 182 100 tgl 15 0 empty empty empty 0 -10 0 12 #fcfcfc #000000 #000000 0 1;
#X obj 261 115 *~;
#X obj 197 100 nbx 5 15 40 400 0 0 empty empty empty 0 -15 0 8 #fcfcfc #000000 #000000 0 256;
#X text 402 46 toggle on = inlet~ is on;
#X text 406 70 value in box + inlet = outlet~ (snapshot~);
#X floatatom 170 159 5 0 0 0 - - - 0;
#X obj 338 3 inlet messageIn;
#X floatatom 334 40 5 0 0 0 - - - 0;
#X obj 360 224 outlet messageOnly;
#X obj 474 2 inlet sigon;
#X obj 517 225 outlet sigon;
#X obj 351 138 r guiUpdate;
#X msg 429 -60 set \$1;
#X connect 0 0 3 0;
#X connect 0 0 25 0;
#X connect 1 0 0 0;
#X connect 2 0 1 0;
#X connect 2 0 25 0;
#X connect 3 0 10 0;
#X connect 4 0 7 0;
#X connect 5 0 7 1;
#X connect 6 0 0 0;
#X connect 6 0 2 0;
#X connect 7 0 6 0;
#X connect 10 0 2 0;
#X connect 11 0 4 0;
#X connect 12 0 5 0;
#X connect 13 0 14 0;
#X connect 14 0 11 0;
#X connect 14 1 12 0;
#X connect 15 0 21 0;
#X connect 16 0 22 0;
#X connect 16 0 18 0;
#X connect 19 0 16 0;
#X connect 19 0 17 0;
#X connect 20 0 21 1;
#X connect 20 0 30 0;
#X connect 21 0 19 0;
#X connect 25 0 19 1;
#X connect 25 0 28 0;
#X connect 26 0 2 0;
#X connect 26 0 27 0;
#X connect 26 0 0 0;
#X connect 29 0 21 1;
#X connect 29 0 32 0;
#X connect 31 0 16 0;
#X connect 32 0 20 0;
#X coords 0 -1 1 1 142 15 2 100 100;
