#N canvas 1019 188 450 300 12;
#X obj 114 96 inlet;
#X obj 120 194 r \$1;
#X obj 115 128 s \$1;
#X obj 230 175 r \$1;
#X msg 230 199 set \$1;
#X obj 230 223 outlet;
#X obj 120 218 outlet;
#X connect 0 0 2 0;
#X connect 1 0 6 0;
#X connect 3 0 4 0;
#X connect 4 0 5 0;
