#N canvas 566 282 450 300 12;
#X obj 53 109 phasor~;
#X obj 52 145 fexpr~ if($x1[0] > 0.5 \, 1 + ($x1[0] * -1) \, $x1[0]);
#X obj 52 169 *~ 4;
#X obj 52 198 -~ 1;
#X obj 52 73 inlet~;
#X obj 52 222 outlet~;
#X text 157 85 triangle oscillator;
#X obj 164 38 \$1;
#X obj 164 10 loadbang;
#X connect 0 0 1 0;
#X connect 1 0 2 0;
#X connect 2 0 3 0;
#X connect 3 0 5 0;
#X connect 4 0 0 0;
#X connect 7 0 4 0;
#X connect 8 0 7 0;
