#N canvas 240 29 1056 467 12;
#X obj 440 124 *~;
#X obj 458 92 expr 1 + $f1;
#X obj 525 156 * -1;
#X obj 507 183 *~;
#X obj 383 155 expr 1 - $f1;
#X obj 358 180 *~;
#X obj 311 156 *~;
#X obj 74 177 *~;
#X obj 127 152 hsl 162 19 0 0.99 0 0 empty empty empty -2 -10 0 12 #fcfcfc #000000 #000000 0 1;
#X text 235 174 0-.99;
#X obj 152 77 inlet~;
#X obj 804 151 outlet~;
#X obj 125 50 r \$1-fdbk;
#X obj 458 68 r \$1-k;
#X obj 774 73 r \$1-tao2;
#X obj 383 132 r \$1-k;
#X obj 525 133 r \$1-k;
#X obj 591 169 r \$1-tao2;
#X obj 150 125 delwrite~ \$0-del1a 1000;
#X obj 139 255 delread4~ \$0-del1b;
#X obj 277 224 delwrite~ \$0-del1b 1000;
#X obj 308 92 delread4~ \$0-del1a;
#X obj 570 118 delwrite~ \$0-del2a 1000;
#X obj 591 198 delread~ \$0-del2b;
#X obj 775 118 delread~ \$0-del2a;
#X obj 774 186 delwrite~ \$0-del2b 1000;
#X obj 310 51 r \$1-tao1;
#X obj 139 184 r \$1-tao1;
#X connect 0 0 22 0;
#X connect 1 0 0 1;
#X connect 2 0 3 1;
#X connect 3 0 22 0;
#X connect 4 0 5 1;
#X connect 5 0 20 0;
#X connect 6 0 20 0;
#X connect 7 0 18 0;
#X connect 8 0 7 1;
#X connect 10 0 18 0;
#X connect 12 0 8 0;
#X connect 13 0 1 0;
#X connect 14 0 24 0;
#X connect 15 0 4 0;
#X connect 15 0 6 1;
#X connect 16 0 2 0;
#X connect 17 0 23 0;
#X connect 19 0 7 0;
#X connect 21 0 0 0;
#X connect 21 0 6 0;
#X connect 23 0 3 0;
#X connect 23 0 5 0;
#X connect 24 0 11 0;
#X connect 24 0 25 0;
#X connect 26 0 21 0;
#X connect 27 0 19 0;
