#N canvas 182 192 1336 755 12;
#X obj 1032 196 expr ($f2 - $f1) / ($f2 + $f1);
#X obj 1170 105 t b f;
#X floatatom 1032 220 5 0 0 0 - - - 0;
#X obj 894 245 expr $f1 / $f2;
#X floatatom 894 269 12 0 0 0 - - - 0;
#X obj 894 292 * 1000;
#X text 1073 219 scattering coefficient;
#X floatatom 996 316 5 0 0 0 - - - 0;
#X text 188 160 diameter 1;
#X text 187 176 diameter 2;
#X obj -44 244 s \$0-dia1;
#X obj -34 267 s \$0-dia2;
#X obj 1167 65 r \$0-dia2;
#X obj 1031 62 r \$0-dia1;
#X obj 899 64 r \$0-len2;
#X obj -22 154 s \$0-len1;
#X obj -44 212 s \$0-len2;
#X text 187 143 length 2;
#X text 187 193 speed of sound;
#X obj -40 300 s \$0-sos;
#X floatatom 811 134 5 0 0 0 - - - 0;
#X floatatom 943 140 5 0 0 0 - - - 0;
#X obj 812 109 r \$0-sos;
#X obj 944 117 r \$0-sos;
#X text 186 211 feedback;
#X obj -27 328 s \$0-fdbk;
#X obj 113 317 inlet~;
#X obj 120 427 outlet~;
#X obj 943 163 t b f;
#X obj 894 315 s \$0-tao2;
#X obj 1032 243 s \$0-k;
#X obj 119 396 tube-c \$0;
#X obj 205 314 inlet~;
#X obj 212 424 outlet~;
#X obj 211 393 tube-c \$0;
#X text 103 103 L~;
#X text 187 103 R~;
#X text 265 103 len1;
#X text 102 231 L~;
#X text 277 228 R~;
#X text 168 230 (tube);
#X obj 634 9 inlet len1;
#X obj 811 157 t b f;
#X obj 722 109 r \$0-len1;
#X obj 721 231 expr $f1 / $f2;
#X obj 721 278 * 1000;
#X obj 721 302 s \$0-tao1;
#X obj 103 126 sliderBox 0.5 20 3;
#X obj 103 143 sliderBox 0.5 20 4;
#X obj 103 160 sliderBox 0.1 5 0.2;
#X obj 103 177 sliderBox 0.1 5 0.3;
#X obj 103 195 sliderBox 100 680 330;
#X obj 103 214 sliderBox 0 0.99 0.6;
#X text 185 124 length 1;
#X text 470 473 Dodge \, Charles \, and Thomas A. Jerse. Computer Music: Synthesis \, Composition \, and Performance. 2 ed \, Schirmer Books [u.a.] \, 1997 \, p.280.;
#X text 472 435 from:;
#X connect 0 0 2 0;
#X connect 1 0 0 0;
#X connect 1 1 0 1;
#X connect 2 0 30 0;
#X connect 3 0 4 0;
#X connect 4 0 5 0;
#X connect 5 0 7 0;
#X connect 5 0 29 0;
#X connect 12 0 1 0;
#X connect 13 0 0 0;
#X connect 14 0 3 0;
#X connect 20 0 42 0;
#X connect 21 0 28 0;
#X connect 22 0 20 0;
#X connect 23 0 21 0;
#X connect 26 0 31 0;
#X connect 28 0 3 0;
#X connect 28 1 3 1;
#X connect 31 0 27 0;
#X connect 32 0 34 0;
#X connect 34 0 33 0;
#X connect 41 0 47 0;
#X connect 42 0 44 0;
#X connect 42 1 44 1;
#X connect 43 0 44 0;
#X connect 44 0 45 0;
#X connect 45 0 46 0;
#X connect 47 0 15 0;
#X connect 48 0 16 0;
#X connect 49 0 10 0;
#X connect 50 0 11 0;
#X connect 51 0 19 0;
#X connect 52 0 25 0;
#X coords 0 -1 1 1 200 150 2 100 100;
